<?xml version="1.0" encoding="UTF-8" standalone="no"?>
<!-- Created with Inkscape (http://www.inkscape.org/) -->

<svg
   width="95.710274mm"
   height="130.86427mm"
   viewBox="0 0 95.710274 130.86427"
   version="1.1"
   id="svg5"
   xml:space="preserve"
   xmlns:inkscape="http://www.inkscape.org/namespaces/inkscape"
   xmlns:sodipodi="http://sodipodi.sourceforge.net/DTD/sodipodi-0.dtd"
   xmlns="http://www.w3.org/2000/svg"
   xmlns:svg="http://www.w3.org/2000/svg"><sodipodi:namedview
     id="namedview7"
     pagecolor="#ffffff"
     bordercolor="#111111"
     borderopacity="1"
     inkscape:showpageshadow="0"
     inkscape:pageopacity="0"
     inkscape:pagecheckerboard="1"
     inkscape:deskcolor="#d1d1d1"
     inkscape:document-units="mm"
     showgrid="false" /><defs
     id="defs2" /><g
     inkscape:label="Layer 1"
     inkscape:groupmode="layer"
     id="layer1"
     transform="translate(-12.39844,-30.792476)"><path
       style="fill:#3a0ca3;fill-opacity:1;stroke-width:0.264583"
       d="m 42.174769,161.5995 c -0.02588,-0.0196 -1.416259,-0.10717 -3.089749,-0.1946 -1.673489,-0.0874 -3.340364,-0.20583 -3.704166,-0.26311 -0.363802,-0.0573 -1.256771,-0.19026 -1.984375,-0.29552 -12.60857,-1.82415 -20.46732,-6.9424 -20.9689,-13.65664 -0.31404,-4.20397 1.89732,-7.87743 7.26544,-12.06916 1.20675,-0.9423 2.19117,-1.85221 2.18762,-2.02203 -0.004,-0.16983 -0.11605,-0.78502 -0.24998,-1.36711 -0.48609,-2.11258 -0.99674,-8.45586 -0.91029,-11.30764 0.24587,-8.11089 2.689711,-17.50777 6.223298,-23.929345 4.261639,-7.74465 9.964857,-13.049247 20.872602,-19.413735 3.771786,-2.200775 5.820368,-4.013599 7.683572,-6.799323 1.92374,-2.876549 1.931942,-3.223521 0.159816,-6.763019 -0.815136,-1.628093 -1.63149,-3.462414 -1.814116,-4.076269 -0.241882,-0.813022 -0.566732,-1.242483 -1.196284,-1.58152 -1.081596,-0.582478 -1.118457,-0.991246 -0.07049,-0.781651 1.299372,0.259874 1.052264,-0.712549 -0.396875,-1.561801 -1.15747,-0.678322 -1.531689,-1.186304 -0.859896,-1.167259 0.181901,0.0052 0.628386,0.17953 0.992188,0.387498 0.932452,0.533038 1.058333,0.493067 1.058333,-0.336047 0,-0.403106 0.240588,-1.601116 0.534641,-2.66224 0.294053,-1.061125 0.474181,-2.027145 0.400285,-2.14671 -0.119467,-0.193305 -0.406672,-1.983708 -0.829937,-5.173752 -0.244284,-1.841122 -0.320447,-8.334375 -0.09775,-8.334375 0.117382,0 0.180358,-0.416718 0.139946,-0.926041 -0.04041,-0.509323 0.02668,-0.926042 0.149087,-0.926042 0.122412,0 0.180978,-0.357187 0.130146,-0.79375 -0.05083,-0.436562 0.0048,-0.79375 0.123738,-0.79375 0.118885,0 0.175771,-0.416719 0.126415,-0.926041 -0.04936,-0.509323 -0.0328,-0.926042 0.03678,-0.926042 0.271095,0 6.181725,4.018152 8.921853,6.065233 2.125047,1.58757 2.945533,2.067631 3.104802,1.816595 0.172572,-0.272002 0.217297,-0.267147 0.220527,0.02393 0.0031,0.28411 0.282943,0.325386 1.260822,0.185998 0.691224,-0.09853 1.614866,-0.171757 2.05254,-0.162732 l 0.795768,0.01641 -0.0021,-1.657616 c -0.0015,-1.297933 0.08419,-1.657603 0.394954,-1.657603 0.297563,0 0.416732,0.380694 0.476223,1.521354 0.07324,1.404216 0.127892,1.521354 0.709777,1.521354 0.398052,0 0.69233,-0.195049 0.798375,-0.529167 0.218011,-0.686897 0.926041,-0.686897 0.926041,0 0,0.494983 0.183738,0.530591 2.844271,0.551215 1.564349,0.01213 3.141927,0.06317 3.505729,0.113432 0.363802,0.05026 3.206869,0.212105 6.317925,0.359654 4.827957,0.228978 5.712375,0.212364 6.03817,-0.113431 0.529584,-0.529585 0.751858,-0.479441 0.310155,0.06997 -0.199718,0.248421 0.09011,0.110074 0.644075,-0.307437 0.553961,-0.417512 1.180444,-1.006449 1.392184,-1.30875 0.211739,-0.302301 0.591937,-0.550907 0.844881,-0.552458 0.252947,-0.0016 0.431565,-0.147363 0.396931,-0.324027 -0.03464,-0.176664 0.08861,-0.263041 0.273873,-0.191948 0.185263,0.07109 0.58788,-0.104616 0.894701,-0.390464 0.306822,-0.285848 0.627261,-0.450321 0.712087,-0.365496 0.08482,0.08483 0.229039,-0.04072 0.320474,-0.278996 0.09143,-0.238273 0.252415,-0.379967 0.357737,-0.314875 0.10532,0.06509 0.550604,-0.209646 0.989516,-0.61053 0.438911,-0.400883 0.935571,-0.683028 1.103701,-0.626987 0.16812,0.05604 0.30567,-0.08289 0.30567,-0.308728 0,-0.274284 0.14618,-0.354523 0.44028,-0.241668 0.27571,0.105797 0.37529,0.06379 0.26641,-0.112372 -0.0996,-0.161132 0.13178,-0.358034 0.54154,-0.460877 0.5203,-0.130586 0.80612,-0.05549 1.04803,0.275338 0.18294,0.250191 0.28734,0.528164 0.232,0.617718 -0.0554,0.08955 -0.17519,0.935215 -0.26632,1.87925 -0.16285,1.687065 -0.20162,2.103543 -0.56624,6.08205 -0.10002,1.091406 -0.18151,2.162969 -0.18109,2.38125 5.3e-4,0.218281 -0.11232,0.540488 -0.25053,0.716015 -0.13822,0.175525 -0.15999,0.466873 -0.0484,0.647441 0.27408,0.443481 0.15234,2.834918 -0.18849,3.702603 -0.20932,0.5329 -0.17976,0.884867 0.12361,1.47152 0.50428,0.975161 1.51031,4.865306 1.33259,5.152865 -0.0734,0.118693 -0.002,0.215805 0.15842,0.215805 0.16049,0 0.26273,0.148828 0.22719,0.330729 -0.0355,0.181901 0.0217,0.763858 0.12712,1.293236 l 0.19172,0.962509 c 8.67585,-0.492934 0.25633,0.203424 0.25174,1.615093 v 0.738005 c 8.16052,-0.161336 0.10166,-0.361901 -0.0755,2.147422 -0.04,0.597863 -0.15028,1.164511 -0.24498,1.259216 -0.0947,0.0947 -0.10812,0.339145 -0.0298,0.5432 0.0783,0.204052 0.0143,0.371006 -0.14222,0.371006 -0.15652,0 -0.22068,0.16655 -0.14256,0.370113 0.0781,0.203562 0.0129,0.449913 -0.14491,0.547449 -0.15782,0.09753 -0.21844,0.288171 -0.13471,0.423638 0.0837,0.135464 0.0261,0.2463 -0.12798,0.2463 -0.15411,0 -0.2802,0.178594 -0.2802,0.396875 0,0.218282 -0.1318,0.396875 -0.29289,0.396875 -0.16109,0 -0.22568,0.175149 -0.14353,0.389218 0.0821,0.214069 -0.008,0.547045 -0.20137,0.739945 -0.1929,0.192899 -0.4305,0.602064 -0.528,0.909256 -0.0975,0.307192 -0.35133,0.625324 -0.56407,0.706959 -0.21274,0.08164 -0.38681,0.318023 -0.38681,0.525303 0,0.207278 -0.18614,0.4483 -0.41364,0.535602 -0.22751,0.0873 -0.33954,0.278632 -0.24897,0.425182 0.0906,0.146548 -0.0209,0.266452 -0.24781,0.266452 -0.240045,0 -0.412493,0.227753 -0.412493,0.544782 0,0.29963 -0.119062,0.471196 -0.264583,0.381259 -0.145521,-0.08994 -0.264583,-0.02893 -0.264583,0.135575 0,0.309608 -0.64094,1.05505 -0.907143,1.05505 -0.08316,0 -0.369675,0.20836 -0.636714,0.463021 -0.267039,0.254661 -0.74875,0.641615 -1.070473,0.859896 -0.501636,0.340347 -0.566168,0.571611 -0.453083,1.623671 0.07253,0.674738 0.203264,1.511255 0.290523,1.858928 0.548569,2.185678 0.870959,6.118415 0.809821,9.878858 -0.06059,3.727122 -0.166208,4.612992 -0.883245,7.408333 -0.920451,3.588357 -1.681774,5.80232 -3.502848,10.18646 -1.4571,3.50789 -1.920504,4.98015 -2.664952,8.46667 -1.323149,6.19678 -2.232752,13.09767 -2.877158,21.82812 -0.382461,5.18159 -0.366631,5.67588 0.18746,5.85394 1.525981,0.49036 2.033071,0.80417 2.477698,1.53331 1.048385,1.71923 0.273505,3.66848 -1.628076,4.09551 -1.531432,0.34391 -5.658305,0.11894 -6.582201,-0.35883 -0.449964,-0.23268 -1.105321,-0.86622 -1.456352,-1.40787 -0.747799,-1.15387 -1.88092,-4.65075 -2.419622,-7.4671 -0.208762,-1.09141 -0.440902,-2.28203 -0.515869,-2.64583 -0.162819,-0.79015 -0.854651,-5.89895 -1.200298,-8.86355 -0.135731,-1.16416 -0.24769,-2.69213 -0.248793,-3.39548 -0.0024,-1.56656 -0.567711,-1.58147 -0.847735,-0.0224 -0.190791,1.06228 -0.06034,10.56648 0.177654,12.94285 0.475107,4.74403 0.833657,6.59992 1.359355,7.03621 0.509842,0.42313 1.160801,1.97703 1.160801,2.77093 0,0.33792 -0.27406,0.93301 -0.609023,1.32242 -0.585803,0.68104 -0.711248,0.70803 -3.290596,0.7079 -3.655637,-1.8e-4 -4.542007,-0.43265 -6.222304,-3.03589 -1.883344,-2.91783 -1.758445,-2.81119 -3.636411,-3.10476 -2.127284,-0.33256 -3.898749,-0.35399 -3.558646,-0.043 0.138245,0.12638 0.81806,0.44065 1.510702,0.69838 2.076593,0.77269 3.874859,3.21707 3.191572,4.3383 -0.141467,0.23213 -0.665018,0.63898 -1.163442,0.90409 -0.828996,0.44095 -1.436127,0.46867 -7.123936,0.32522 -5.950426,-0.15008 -8.56561,-0.25048 -14.41979,-0.55359 -6.091333,-0.31539 -10.315723,-1.10808 -13.056145,-2.44993 -1.445834,-0.70796 -3.56498,-2.54911 -4.317283,-3.75094 l -0.410347,-0.65554 -0.991669,0.75638 c -1.482038,1.1304 -2.537468,2.9339 -2.390188,4.08428 0.35816,2.7974 6.210824,5.62327 14.060294,6.7888 2.604448,0.38673 10.83887,0.59497 11.744176,0.297 0.213535,-0.0703 1.281213,-0.20075 2.372619,-0.28994 1.091406,-0.0892 3.234531,-0.3487 4.7625,-0.57669 3.851206,-0.57464 7.218146,-0.54421 8.738791,0.079 2.398485,0.98295 3.259413,2.0852 2.894032,3.70525 -0.559565,2.48104 -3.387068,3.69409 -10.971365,4.7069 -3.564921,0.47607 -12.34025,1.01729 -12.652958,0.78038 z M 79.645758,58.106631 c 0.276739,-0.475189 0.435333,-1.040735 0.352431,-1.25677 -0.282779,-0.736913 -3.342336,-0.283705 -3.342336,0.495096 0,0.530585 1.44096,1.779299 1.964476,1.702384 0.287247,-0.0422 0.748691,-0.465523 1.025429,-0.94071 z M 68.672033,56.728322 c 0.04973,-0.149191 0.215669,-0.271254 0.368757,-0.271254 0.519835,0 1.575941,-1.3819 1.443413,-1.888685 -0.08414,-0.321742 0.01148,-0.492565 0.275691,-0.492565 0.314381,0 0.33683,-0.08154 0.100769,-0.365977 -0.235688,-0.283985 -0.204824,-0.403928 0.137763,-0.535395 0.242824,-0.09318 0.372528,-0.238389 0.28823,-0.322685 -0.0843,-0.0843 -0.03719,-0.458571 0.104677,-0.831715 0.188986,-0.497076 0.166788,-0.736283 -0.08304,-0.894787 -0.264618,-0.167888 -0.2521,-0.21913 0.05589,-0.228803 0.303493,-0.0095 0.27603,-0.103871 -0.116715,-0.400926 -0.309272,-0.233921 -0.376108,-0.388461 -0.168008,-0.388461 0.258569,0 0.233537,-0.171003 -0.09941,-0.679149 -0.671282,-1.024509 -1.41987,-1.702101 -1.880439,-1.702101 -0.226869,0 -0.338904,-0.119063 -0.248967,-0.264584 0.147061,-0.23795 -0.200218,-0.379187 -0.727604,-0.295915 -0.109141,0.01722 -0.198438,-0.08399 -0.198438,-0.224949 0,-0.140951 -0.198125,-0.18025 -0.440277,-0.08733 -0.29604,0.113602 -0.377605,0.06754 -0.24897,-0.140594 0.114818,-0.18578 0.02638,-0.309547 -0.221179,-0.309547 -0.226869,0 -0.41249,0.119063 -0.41249,0.264583 0,0.145521 -0.115327,0.264584 -0.256281,0.264584 -0.140952,0 -0.199168,-0.148828 -0.129366,-0.330729 0.08077,-0.210471 -0.114665,-0.33073 -0.537471,-0.33073 -0.412372,0 -0.66592,0.15054 -0.668433,0.396875 -0.0035,0.347319 -0.03479,0.348277 -0.250198,0.0077 -0.267921,-0.423642 -0.317147,-0.398332 -0.757019,0.389213 -0.182954,0.327557 -0.298625,0.387736 -0.303604,0.157954 -0.0055,-0.252019 -0.165346,-0.189847 -0.497927,0.193624 -0.269436,0.310661 -0.567092,0.48763 -0.661459,0.393264 -0.09437,-0.09437 -0.171577,-0.01675 -0.171577,0.172463 0,0.189225 -0.327422,0.625642 -0.727604,0.969817 -0.400182,0.344175 -0.629803,0.625919 -0.510267,0.626097 0.119533,1.77e-4 0.03024,0.18742 -0.198438,0.416097 -0.228677,0.228674 -0.425323,0.615627 -0.436994,0.859895 -0.106804,2.235338 -0.0963,2.69308 0.06179,2.69308 0.100086,0 0.266933,0.386821 0.370774,0.859605 0.204639,0.931725 1.110541,1.879076 2.366785,2.475082 0.910828,0.43213 5.223495,0.309414 5.377639,-0.153017 z M 63.77179,55.410377 c -1.044012,-0.636575 -1.651146,-1.533319 -1.825057,-2.695636 -0.400486,-2.676618 4.046375,-4.811823 6.217157,-2.985233 1.720344,1.447575 1.609365,4.372874 -0.212268,5.595162 -1.147709,0.770096 -2.995268,0.807979 -4.179832,0.08571 z m 2.433022,-2.6611 c 0,-0.567134 -0.768792,-0.485219 -0.880301,0.0938 -0.06809,0.35359 0.03966,0.461346 0.393253,0.393253 0.267875,-0.05159 0.487048,-0.270761 0.487048,-0.48705 z m 24.79994,4.17177 c 0.830852,0.05726 2.950583,-1.594803 3.473553,-2.707206 1.305549,-2.777019 -0.138578,-6.281375 -2.873494,-6.972884 -1.903013,-0.481166 -5.159375,-0.04571 -5.159375,0.689932 0,0.226761 -0.07874,0.33355 -0.174982,0.237308 -0.09624,-0.09624 -0.481021,0.27087 -0.855065,0.8158 -0.547539,0.797684 -0.682212,1.313064 -0.691009,2.644426 -0.006,0.909505 0.08111,1.653645 0.193606,1.653645 0.112493,0 0.204533,0.178594 0.204533,0.396875 0,0.218282 0.115327,0.396875 0.256281,0.396875 0.140952,0 0.187746,0.178594 0.103984,0.396875 -0.08376,0.218282 -0.0205,0.396875 0.140594,0.396875 0.161092,0 0.293704,0.148828 0.294699,0.330729 0.0024,0.41954 1.708763,1.602717 2.616459,1.814119 0.378965,0.08826 0.986681,0.09625 1.350483,0.01775 0.363802,-0.07849 0.867683,-0.128503 1.119733,-0.11113 z m -2.13858,-1.164466 c -1.855951,-0.941557 -2.933821,-3.889843 -2.048208,-5.602432 1.467123,-2.837101 6.209726,-2.321156 7.041007,0.765984 0.394258,1.46417 -0.03475,2.818783 -1.276818,4.031633 -1.225354,1.196528 -2.429703,1.457368 -3.715981,0.804815 z m 2.011159,-4.26045 c 0.06459,-0.193987 -0.117782,-0.330729 -0.441097,-0.330729 -0.324996,0 -0.551215,0.170839 -0.551215,0.416274 0,0.486272 0.825617,0.415097 0.992312,-0.08554 z m -35.652729,-6.68067 c 0,-0.145521 -0.119062,-0.264583 -0.264583,-0.264583 -0.145521,0 -0.264583,0.119062 -0.264583,0.264583 0,0.145521 0.119062,0.264584 0.264583,0.264584 0.145521,0 0.264583,-0.119063 0.264583,-0.264584 z m -0.09621,-1.322916 c 0,-0.820992 -0.257288,-1.027451 -0.596474,-0.478637 -0.107114,0.173313 -0.0613,0.359601 0.101812,0.41397 0.16311,0.05437 0.230984,0.269756 0.150828,0.478636 -0.08015,0.208878 -0.03558,0.379781 0.09905,0.379781 0.134633,0 0.244784,-0.357188 0.244784,-0.79375 z m -0.16837,-1.5875 c 0,-0.145521 -0.0525,-0.264584 -0.116676,-0.264584 -0.06417,0 -0.190262,0.119063 -0.280199,0.264584 -0.08994,0.145521 -0.03743,0.264583 0.116676,0.264583 0.154109,0 0.280199,-0.119062 0.280199,-0.264583 z m 39.819792,-2.38125 c 0.08994,-0.145521 0.03743,-0.264583 -0.116676,-0.264583 -0.154109,0 -0.280199,0.119062 -0.280199,0.264583 0,0.145521 0.0525,0.264583 0.116676,0.264583 0.06417,0 0.190262,-0.119062 0.280199,-0.264583 z m 6.746876,-0.264583 c 0,-0.145521 -0.11906,-0.264584 -0.26459,-0.264584 -0.14552,0 -0.26458,0.119063 -0.26458,0.264584 0,0.14552 0.11906,0.264583 0.26458,0.264583 0.14553,0 0.26459,-0.119063 0.26459,-0.264583 z m 0,-1.058334 c 0,-0.14552 -0.0525,-0.264583 -0.11668,-0.264583 -0.0642,0 -0.19026,0.119063 -0.2802,0.264583 -0.0899,0.145521 -0.0374,0.264584 0.11668,0.264584 0.15411,0 0.2802,-0.119063 0.2802,-0.264584 z"
       id="path555"
       sodipodi:nodetypes="csscsscsssscssssscsssssssssssssscssccsssssssssssscsssssssssssssssscssssssssccccsssssssssscssssssssssssssssssssssssssscsssssssssssssssscsssssssssccssssscsssssssscssssscssssssssccscssssssssssccssssssssssssssssssssssscsssssssssssssssssssssssssssssssssssssssssssss" /></g></svg>
